<?xml version="1.0" encoding="UTF-8" ?>
<!DOCTYPE svg PUBLIC "-//W3C//DTD SVG 1.1//EN" "http://www.w3.org/Graphics/SVG/1.1/DTD/svg11.dtd">
<svg width="727pt" height="175pt" viewBox="0 0 727 175" version="1.1" xmlns="http://www.w3.org/2000/svg">
<g id="#feffffff">
</g>
<g id="#0a5b4bff">
<path fill="#0a5b4b" opacity="1.00" d=" M 101.10 8.84 C 105.01 8.77 108.92 8.78 112.83 8.80 C 87.20 58.67 61.52 108.51 35.99 158.43 C 47.35 158.48 58.71 158.49 70.07 158.45 C 73.75 151.62 77.07 144.62 80.65 137.75 C 77.18 137.73 73.72 137.72 70.25 137.75 C 68.25 141.35 66.37 145.02 64.55 148.72 C 60.68 148.76 56.80 148.72 52.93 148.65 C 62.94 129.08 73.14 109.61 83.03 89.98 C 89.96 77.40 95.78 64.25 102.82 51.73 C 109.97 37.34 117.33 23.07 124.73 8.81 C 127.67 8.81 130.60 8.81 133.54 8.73 C 153.89 47.14 173.39 86.02 193.42 124.60 C 200.68 139.48 208.70 153.97 215.94 168.85 C 196.79 168.69 177.64 168.91 158.49 168.76 C 153.07 158.40 147.71 148.02 142.38 137.61 C 125.60 137.75 108.81 137.61 92.03 137.81 C 87.10 148.24 81.47 158.32 76.56 168.76 C 57.28 168.83 38.00 168.78 18.72 168.86 C 31.62 144.60 43.74 119.91 56.59 95.62 C 60.12 88.79 63.46 81.86 67.01 75.03 C 73.56 63.37 79.09 51.17 85.45 39.39 C 90.70 29.22 95.99 19.08 101.10 8.84 M 112.18 56.72 C 113.84 60.40 115.48 64.09 117.48 67.60 C 120.97 68.50 124.67 70.03 126.31 73.51 C 129.24 78.29 126.75 84.47 122.37 87.40 C 122.37 91.35 122.32 95.30 122.47 99.24 C 124.00 100.49 125.44 101.86 126.77 103.32 C 133.73 103.49 140.70 103.38 147.66 103.40 C 150.14 100.85 153.14 98.07 156.98 98.35 C 161.49 98.21 165.68 101.61 166.56 106.01 C 167.38 109.02 166.34 112.04 165.27 114.83 C 172.83 129.34 180.16 143.97 187.88 158.38 C 191.69 158.44 195.51 158.43 199.33 158.45 C 179.32 120.13 159.70 81.62 139.81 43.25 C 136.35 36.33 133.05 29.32 129.14 22.64 C 123.46 33.99 117.68 45.29 112.18 56.72 M 75.67 127.41 C 100.05 127.36 124.44 127.40 148.82 127.41 C 154.31 137.66 159.26 148.19 165.03 158.28 C 168.73 158.41 172.44 158.41 176.15 158.41 C 169.34 145.31 162.72 132.11 155.99 118.97 C 152.48 118.40 149.48 116.40 147.63 113.37 C 140.58 113.39 133.53 113.14 126.48 113.37 C 124.58 115.77 122.20 118.13 118.95 118.35 C 113.28 119.38 107.29 114.84 107.13 109.00 C 106.63 104.95 109.34 101.54 112.30 99.15 C 112.41 95.34 112.38 91.54 112.25 87.73 C 107.27 84.61 105.38 77.87 108.35 72.72 C 107.64 71.07 106.91 69.44 106.16 67.81 C 95.94 87.65 85.54 107.40 75.67 127.41 Z" />
<path fill="#0a5b4b" opacity="1.00" d=" M 263.46 33.39 C 268.13 33.36 272.80 33.39 277.47 33.39 C 286.00 52.14 294.07 71.08 302.79 89.74 C 297.93 89.76 293.07 89.78 288.22 89.74 C 286.38 85.78 284.80 81.72 283.10 77.70 C 274.64 77.65 266.18 77.78 257.72 77.73 C 255.84 81.59 254.86 85.88 252.71 89.58 C 248.07 89.91 243.42 89.63 238.78 89.63 C 247.13 70.94 255.00 52.04 263.46 33.39 M 262.12 67.27 C 267.71 67.24 273.30 67.19 278.90 67.26 C 276.09 60.47 273.23 53.71 270.50 46.89 C 267.40 53.55 264.95 60.49 262.12 67.27 Z" />
<path fill="#0a5b4b" opacity="1.00" d=" M 308.24 33.39 C 317.45 33.47 326.65 33.29 335.85 33.49 C 343.14 33.73 350.84 37.02 354.51 43.61 C 358.34 50.86 357.73 60.82 351.79 66.79 C 350.09 68.56 347.90 69.74 345.79 70.93 C 350.00 77.18 354.12 83.48 358.42 89.67 C 353.46 89.77 348.50 89.73 343.54 89.64 C 339.89 84.21 336.23 78.77 332.63 73.31 C 329.12 73.32 325.62 73.36 322.12 73.36 C 321.69 78.78 321.88 84.22 321.85 89.65 C 317.29 89.66 312.74 89.66 308.19 89.66 C 308.36 70.90 308.15 52.15 308.24 33.39 M 321.82 44.55 C 321.76 50.48 321.78 56.40 321.87 62.33 C 327.92 61.99 334.83 63.90 340.16 60.18 C 344.96 56.59 344.17 47.74 338.37 45.57 C 333.08 43.70 327.31 44.80 321.82 44.55 Z" />
<path fill="#0a5b4b" opacity="1.00" d=" M 366.30 33.43 C 370.12 33.43 373.95 33.40 377.78 33.34 C 386.90 44.25 395.56 55.53 404.55 66.56 C 404.41 55.51 404.59 44.45 404.46 33.40 C 408.88 33.38 413.30 33.38 417.72 33.41 C 417.75 52.17 417.79 70.93 417.76 89.68 C 413.99 89.67 410.22 89.65 406.46 89.60 C 397.28 78.69 388.85 67.18 379.64 56.29 C 379.57 67.43 379.71 78.57 379.65 89.72 C 375.20 89.72 370.75 89.76 366.30 89.73 C 366.35 70.96 366.28 52.19 366.30 33.43 Z" />
<path fill="#0a5b4b" opacity="1.00" d=" M 422.66 33.48 C 427.53 33.33 432.39 33.45 437.26 33.44 C 442.30 45.51 447.31 57.58 452.24 69.69 C 452.70 70.64 453.23 71.55 453.83 72.43 C 459.30 59.42 464.86 46.46 470.31 33.45 C 474.84 33.38 479.38 33.41 483.92 33.44 C 476.19 52.23 467.63 70.68 460.27 89.61 C 455.63 89.75 450.99 89.76 446.35 89.63 C 438.53 70.88 430.70 52.13 422.66 33.48 Z" />
<path fill="#0a5b4b" opacity="1.00" d=" M 502.44 33.41 C 507.10 33.35 511.77 33.41 516.44 33.43 C 524.92 52.15 533.08 71.02 541.67 89.69 C 536.80 89.72 531.94 89.76 527.08 89.70 C 525.25 85.75 523.55 81.75 521.89 77.73 C 513.47 77.67 505.05 77.75 496.63 77.66 C 494.86 81.61 493.47 85.72 491.74 89.69 C 487.09 89.74 482.44 89.76 477.80 89.68 C 485.94 70.89 494.18 52.14 502.44 33.41 M 501.09 67.24 C 506.68 67.25 512.27 67.27 517.87 67.23 C 514.95 60.52 512.30 53.71 509.48 46.97 C 506.42 53.62 503.95 60.52 501.09 67.24 Z" />
<path fill="#0a5b4b" opacity="1.00" d=" M 546.98 33.37 C 551.52 33.36 556.07 33.36 560.61 33.35 C 560.65 48.33 560.63 63.30 560.63 78.27 C 569.75 78.32 578.87 78.26 587.99 78.28 C 588.16 82.07 588.13 85.85 588.04 89.64 C 574.38 89.71 560.72 89.68 547.06 89.70 C 547.04 70.93 546.69 52.15 546.98 33.37 Z" />
<path fill="#0a5b4b" opacity="1.00" d=" M 595.01 33.42 C 609.40 33.45 623.78 33.30 638.17 33.51 C 638.10 37.14 638.11 40.76 638.15 44.38 C 628.31 44.44 618.47 44.38 608.63 44.43 C 608.59 48.18 608.58 51.92 608.57 55.67 C 617.24 55.70 625.92 55.66 634.59 55.70 C 634.60 59.23 634.60 62.77 634.59 66.30 C 625.97 66.26 617.36 66.39 608.74 66.21 C 608.70 70.30 608.71 74.39 608.72 78.48 C 618.90 78.65 629.09 78.55 639.27 78.54 C 639.31 82.26 639.32 85.99 639.27 89.72 C 624.55 89.73 609.83 89.64 595.11 89.67 C 595.20 70.92 594.90 52.17 595.01 33.42 Z" />
<path fill="#0a5b4b" opacity="1.00" d=" M 648.52 33.43 C 651.99 33.45 655.46 33.31 658.94 33.43 C 660.51 33.27 661.18 34.99 662.15 35.90 C 670.25 46.22 678.61 56.32 686.66 66.68 C 686.51 55.59 686.63 44.50 686.58 33.41 C 690.99 33.43 695.41 33.38 699.83 33.35 C 699.80 52.13 699.87 70.90 699.81 89.68 C 696.21 89.67 692.61 89.94 689.02 89.67 C 687.73 89.17 687.05 87.80 686.14 86.85 C 678.23 76.37 669.63 66.44 661.76 55.93 C 661.68 67.20 661.85 78.47 661.76 89.73 C 657.36 89.67 652.96 89.68 648.56 89.61 C 648.64 70.88 648.67 52.16 648.52 33.43 Z" />
<path fill="#0a5b4b" opacity="1.00" d=" M 122.39 55.22 C 124.32 51.40 126.05 47.47 127.97 43.63 C 135.52 59.80 144.61 75.21 151.98 91.46 C 149.16 92.94 146.30 94.35 143.45 95.76 C 136.08 82.44 129.08 68.89 122.39 55.22 Z" />
<path fill="#0a5b4b" opacity="1.00" d=" M 256.92 112.18 C 265.88 110.29 275.76 111.52 283.45 116.71 C 282.42 118.99 281.43 121.28 280.40 123.55 C 274.26 119.49 266.49 117.55 259.23 119.21 C 255.80 120.00 252.11 122.23 251.54 126.00 C 250.90 129.37 253.31 132.46 256.20 133.86 C 263.82 137.46 272.78 137.48 279.99 142.03 C 287.13 146.63 287.47 157.86 281.71 163.68 C 277.69 167.93 271.65 169.47 265.99 169.66 C 257.38 170.16 248.18 168.05 241.70 162.09 C 242.78 159.86 243.87 157.64 244.98 155.43 C 252.09 161.72 262.45 164.24 271.55 161.33 C 275.51 160.05 278.74 155.32 276.72 151.26 C 274.96 147.49 270.54 146.40 266.90 145.29 C 260.21 143.27 252.65 142.64 247.16 137.88 C 243.09 134.35 242.42 128.40 243.58 123.42 C 245.39 117.50 251.00 113.39 256.92 112.18 Z" />
<path fill="#0a5b4b" opacity="1.00" d=" M 288.32 112.15 C 291.27 112.11 294.22 112.08 297.17 112.01 C 303.29 121.74 309.35 131.51 315.27 141.37 C 321.22 131.63 327.50 122.09 333.14 112.16 C 336.07 112.11 339.00 112.12 341.93 112.19 C 337.17 120.31 331.97 128.15 327.27 136.30 C 324.84 140.63 321.51 144.45 319.55 149.04 C 319.19 155.65 319.62 162.28 319.44 168.90 C 316.56 168.88 313.68 168.86 310.81 168.81 C 310.81 163.54 310.85 158.27 310.86 153.00 C 310.78 151.02 311.08 148.83 309.78 147.16 C 302.25 135.72 295.63 123.73 288.32 112.15 Z" />
<path fill="#0a5b4b" opacity="1.00" d=" M 353.39 114.43 C 363.61 109.53 376.57 110.44 386.00 116.76 C 384.99 119.00 384.03 121.26 383.08 123.52 C 375.49 118.55 364.53 116.23 356.61 121.65 C 353.16 124.39 353.06 130.60 357.00 132.96 C 365.30 138.04 376.30 136.72 383.98 143.09 C 390.45 148.64 389.56 159.81 382.98 164.91 C 376.43 170.00 367.50 170.35 359.60 169.22 C 354.07 168.19 348.08 166.41 344.23 162.08 C 345.01 159.77 346.21 157.65 347.26 155.47 C 352.97 159.69 359.76 162.81 367.01 162.49 C 371.58 162.37 377.53 161.41 379.39 156.55 C 380.86 153.00 379.03 148.91 375.58 147.38 C 367.36 143.44 357.24 144.04 349.91 138.11 C 342.61 131.75 344.80 118.61 353.39 114.43 Z" />
<path fill="#0a5b4b" opacity="1.00" d=" M 391.74 112.12 C 407.42 112.09 423.11 112.12 438.79 112.11 C 438.79 114.52 438.80 116.93 438.82 119.34 C 432.43 119.41 426.03 119.36 419.64 119.37 C 419.57 135.87 419.67 152.38 419.54 168.88 C 416.74 168.87 413.95 168.88 411.17 168.85 C 411.14 152.38 411.20 135.92 411.18 119.46 C 404.70 119.29 398.22 119.43 391.74 119.27 C 391.72 116.88 391.72 114.50 391.74 112.12 Z" />
<path fill="#0a5b4b" opacity="1.00" d=" M 447.72 112.11 C 461.20 112.17 474.68 112.04 488.16 112.13 C 488.15 114.54 488.14 116.94 488.13 119.36 C 477.45 119.44 466.77 119.34 456.09 119.34 C 456.15 125.05 456.17 130.76 456.12 136.47 C 465.59 136.51 475.07 136.49 484.55 136.52 C 484.54 138.88 484.54 141.25 484.55 143.62 C 475.07 143.72 465.58 143.64 456.10 143.73 C 456.14 149.71 456.07 155.70 456.10 161.69 C 467.19 161.75 478.27 161.61 489.36 161.64 C 489.36 164.06 489.36 166.48 489.36 168.90 C 475.47 168.88 461.59 168.87 447.70 168.88 C 447.63 149.95 447.65 131.03 447.72 112.11 Z" />
<path fill="#0a5b4b" opacity="1.00" d=" M 501.67 112.09 C 504.38 112.56 508.51 110.82 509.91 114.02 C 517.39 126.52 525.00 138.94 532.13 151.64 C 539.79 138.47 547.18 125.15 555.10 112.14 C 557.47 112.13 559.84 112.14 562.22 112.17 C 562.45 131.09 562.46 150.02 562.38 168.94 C 559.65 168.91 556.94 168.89 554.23 168.85 C 554.26 155.19 554.27 141.53 554.14 127.87 C 547.32 139.29 540.75 150.85 534.11 162.37 C 532.72 162.32 531.34 162.27 529.97 162.21 C 523.06 151.08 516.92 139.46 509.72 128.51 C 509.54 141.97 509.84 155.44 509.70 168.90 C 507.01 168.90 504.31 168.89 501.63 168.90 C 501.70 149.96 501.57 131.02 501.67 112.09 Z" />
<path fill="#0a5b4b" opacity="1.00" d=" M 575.73 123.44 C 577.51 117.12 583.77 113.24 589.91 112.02 C 598.64 110.33 608.16 111.80 615.63 116.75 C 614.63 118.98 613.64 121.21 612.66 123.44 C 607.59 120.60 601.94 118.34 596.02 118.68 C 592.09 118.90 587.55 119.59 585.01 122.95 C 582.43 126.34 583.71 131.71 587.56 133.54 C 595.08 137.42 604.06 137.29 611.45 141.58 C 619.91 145.88 619.87 159.17 612.81 164.79 C 606.44 169.89 597.68 170.29 589.91 169.32 C 584.36 168.26 578.43 166.74 574.33 162.61 C 573.97 160.09 576.16 157.76 577.02 155.41 C 583.93 160.99 593.24 164.07 602.04 161.85 C 605.38 161.00 608.98 158.76 609.35 155.01 C 610.08 151.28 607.11 148.11 603.87 146.84 C 596.01 143.52 586.71 143.69 579.73 138.32 C 575.15 134.96 574.49 128.60 575.73 123.44 Z" />
</g>
</svg>
